<svg width="80" height="80" viewBox="0 0 80 80" fill="none" xmlns="http://www.w3.org/2000/svg">
<path d="M56.6758 6.92432C60.3919 6.92432 63.5683 8.2432 66.205 10.881C68.8411 13.5188 70.1592 16.6982 70.1592 20.4193C70.1592 21.0288 70.1175 21.8474 70.0342 22.8751C69.9508 23.9029 69.8258 25.0901 69.6592 26.4368L65.0758 60.0202C64.7847 62.3246 63.7633 64.1152 62.0117 65.3918C60.2606 66.6679 58.3936 67.306 56.4108 67.306C55.2214 67.306 54.0611 67.0527 52.93 66.546C51.7989 66.0393 50.8381 65.2165 50.0475 64.0777L41.1308 51.0802C41.0197 50.9529 40.8561 50.8338 40.64 50.7227C40.4244 50.6115 40.1856 50.556 39.9233 50.556C39.8344 50.556 39.4275 50.7863 38.7025 51.2468L30.0358 63.8302C29.2453 65.0229 28.2558 65.9004 27.0675 66.4627C25.8797 67.0249 24.6628 67.306 23.4167 67.306C21.4322 67.306 19.5795 66.6679 17.8583 65.3918C16.1378 64.1152 15.1386 62.2968 14.8608 59.9368L10.3608 26.4368C10.1808 25.0901 10.0525 23.904 9.97584 22.8785C9.89917 21.8529 9.86084 21.0351 9.86084 20.4251C9.86084 16.6996 11.1764 13.5182 13.8075 10.881C16.4392 8.2432 19.6097 6.92432 23.3192 6.92432C25.3425 6.92432 26.962 7.18821 28.1775 7.71598C29.3931 8.24376 30.557 8.81987 31.6692 9.44432C32.7653 10.0504 33.93 10.6151 35.1633 11.1385C36.3961 11.6624 38.0072 11.9243 39.9967 11.9243C41.9856 11.9243 43.5975 11.6624 44.8325 11.1385C46.0681 10.6151 47.2347 10.0504 48.3325 9.44432C49.4464 8.81987 50.6228 8.24376 51.8617 7.71598C53.1006 7.18821 54.7053 6.92432 56.6758 6.92432ZM56.6617 12.6218C55.4994 12.6218 54.4778 12.7963 53.5967 13.1451C52.7156 13.494 51.8083 13.954 50.875 14.5251C49.0572 15.5518 47.3514 16.3246 45.7575 16.8435C44.1631 17.3624 42.2439 17.6218 40 17.6218C37.7561 17.6218 35.8508 17.3624 34.2842 16.8435C32.7181 16.3246 31.0261 15.5518 29.2083 14.5251C28.275 13.954 27.3539 13.494 26.445 13.1451C25.5361 12.7963 24.4986 12.6218 23.3325 12.6218C21.1592 12.6218 19.3133 13.3774 17.795 14.8885C16.2772 16.4001 15.525 18.2429 15.5383 20.4168C15.5517 20.9146 15.5828 21.5971 15.6317 22.4643C15.6806 23.3321 15.7817 24.3174 15.935 25.4201L20.4583 58.4693C20.5595 59.3327 20.9264 59.9913 21.5592 60.4452C22.1925 60.8996 22.8572 61.1268 23.5533 61.1268C24.0022 61.1268 24.4303 61.0118 24.8375 60.7818C25.2447 60.5518 25.6056 60.2346 25.92 59.8302L33.9783 48.0143C34.685 46.9904 35.5786 46.2118 36.6592 45.6785C37.7403 45.1452 38.8544 44.8785 40.0017 44.8785C41.1489 44.8785 42.2492 45.1479 43.3025 45.6868C44.3558 46.2252 45.2411 47.0077 45.9583 48.0343L54.1433 60.0402C54.4011 60.4579 54.7372 60.7574 55.1517 60.9385C55.5661 61.1196 55.9758 61.2102 56.3808 61.2102C57.0653 61.2102 57.725 60.9696 58.36 60.4885C58.9944 60.0074 59.3672 59.3899 59.4783 58.636L64.0633 25.4268C64.2178 24.2663 64.3228 23.2524 64.3783 22.3851C64.4339 21.5174 64.4617 20.8613 64.4617 20.4168C64.4617 18.2407 63.7064 16.3977 62.1958 14.8877C60.6858 13.3771 58.8411 12.6218 56.6617 12.6218Z" fill="#080409"/>
</svg>
